<?xml version="1.0" standalone="no"?><!DOCTYPE svg PUBLIC "-//W3C//DTD SVG 1.1//EN" "http://www.w3.org/Graphics/SVG/1.1/DTD/svg11.dtd"><svg class="icon" width="200px" height="200.00px" viewBox="0 0 1024 1024" version="1.1" xmlns="http://www.w3.org/2000/svg"><path  d="M1001.450595 433.481883L538.888734 9.946679a33.908408 33.908408 0 0 0-47.983596 0L23.225026 434.121665a33.908408 33.908408 0 0 0 23.671907 58.220096h79.97266v499.669175a31.989064 31.989064 0 0 0 31.989063 31.989064h191.934383a31.989064 31.989064 0 0 0 31.989063-31.989064v-334.605606a31.989064 31.989064 0 0 1 31.989064-31.989064h191.934383a31.989064 31.989064 0 0 1 31.989063 31.989064v334.605606a31.989064 31.989064 0 0 0 31.989064 31.989064h191.934383a31.989064 31.989064 0 0 0 31.989063-31.989064V492.341761h81.892003a35.18797 35.18797 0 0 0 24.95147-58.859878z"  /></svg>